<svg width="181" height="63" viewBox="0 0 181 63" fill="none" xmlns="http://www.w3.org/2000/svg">
<path d="M139.32 22.6C138.47 16.05 133.83 8.59 127.21 3.16C134.34 5.67 140.51 4.46 143.3 0C144.15 6.55 148.79 14.01 155.4 19.44C148.27 16.93 142.1 18.14 139.31 22.6" fill="#EC1C24"/>
<path d="M32.8004 30.1501H27.6504V62.7501H32.8004V30.1501Z" fill="black"/>
<path d="M19.9 35.1401V39.3001H15.77C16.29 36.0201 16.11 33.1501 16.11 30.1601H0.52V34.5001H10.91C10.91 36.1701 10.93 37.5901 10.62 39.3101H1.04V43.6501H9.27C7.69 47.0001 4.61 49.4901 0 52.0001L2.52 55.6601C9.51 51.7401 13.11 48.3001 14.7 43.6501H19.9V62.7701H25.04V30.1501H17.45C19.18 31.3901 19.9 32.7501 19.9 35.1301V35.1401Z" fill="black"/>
<path d="M96.2398 35.1401V62.7501H101.51V30.1501H93.7998C95.5298 31.3901 96.2498 32.7501 96.2498 35.1301L96.2398 35.1401Z" fill="black"/>
<path d="M114.04 52.2602H122.27V62.7502H127.54V52.2602H134.77L137.25 47.9202H114.04V52.2602Z" fill="black"/>
<path d="M124.9 45.9001C131.44 45.9001 134.85 42.5301 134.85 37.7601C134.85 32.9901 131.44 29.6201 124.9 29.6201C118.36 29.6201 114.95 32.9901 114.95 37.7601C114.95 42.5301 118.36 45.9001 124.9 45.9001ZM124.9 33.7701C127.88 33.7701 129.58 35.3801 129.58 37.7501C129.58 40.1201 127.88 41.7301 124.9 41.7301C121.92 41.7301 120.22 40.1101 120.22 37.7501C120.22 35.3901 121.92 33.7701 124.9 33.7701Z" fill="black"/>
<path d="M47.3996 29.7002C41.6696 29.7002 37.0996 33.2202 37.0996 41.8502C37.0996 50.4802 41.6696 54.0002 47.3996 54.0002C53.1296 54.0002 57.6996 50.4802 57.6996 41.8502C57.6996 33.2202 53.1396 29.7002 47.3996 29.7002ZM47.3996 49.6602C44.3996 49.6602 42.4896 46.9802 42.4896 41.8502C42.4896 36.7202 44.3996 34.0402 47.3996 34.0402C50.3996 34.0402 52.3096 36.7202 52.3096 41.8502C52.3096 46.9802 50.3896 49.6602 47.3996 49.6602Z" fill="black"/>
<path d="M138.64 35.1401V62.7501H143.91V30.1501H136.13C137.86 31.3901 138.64 32.7501 138.64 35.1301V35.1401Z" fill="black"/>
<path d="M61.5799 35.1401V62.7501H66.8499V30.1501H59.1299C60.8599 31.3901 61.5799 32.7501 61.5799 35.1301V35.1401Z" fill="black"/>
<path d="M78.9505 47.8601V43.6201H88.9105V39.2901H78.9505V34.4901H89.4705L91.9505 30.1501H71.2305C72.9605 31.3901 73.6805 32.7501 73.6805 35.1301V49.3601C73.6805 51.6601 75.3005 53.4101 77.5505 53.4101H92.5605V49.0101H80.1505C79.2105 49.0101 78.9505 48.6401 78.9505 47.8501V47.8601Z" fill="black"/>
<path d="M180.31 53.4202H148.19V57.7602H180.31V53.4202Z" fill="black"/>
<path d="M156.96 49.8402L164.16 42.6502L171.87 49.8402H178.75L167.5 39.3202L175.87 30.9702H152.17V35.3002H164.62L150.06 49.8402H156.96Z" fill="black"/>
</svg>
