<svg width="390" height="104" viewBox="0 0 390 104" fill="none" xmlns="http://www.w3.org/2000/svg">
<g clip-path="url(#clip0_39_5)">
<path d="M34.5 52.6L59.4 22H45.8C39.7 22 35.5 23.9 31.8 28.2L18.7 44.3V0H5.6C2.5 0 0 2.5 0 5.6V88.2H13.1C16.2 88.2 18.7 85.7 18.7 82.6V60.6L29.4 73.7L38.5 84.9C40.3 87.2 42.7 88.3 45.2 88.3H63.6L51.7 73.7L34.5 52.6ZM92 72.6C89.2 72.6 87 70.3 87 67.6V0H73.9C70.8 0 68.3 2.5 68.3 5.6V71.1C68.3 81.2 75.3 88.2 85.4 88.2H99.9C103 88.2 105.5 85.7 105.5 82.6V72.6H92Z" fill="#221E1F"/>
<path d="M108.2 29.5001V17.1001L107 18.3001C107 18.3001 103.4 21.9001 93.3 21.9001H45.5C37.9 21.9001 34.4 25.0001 31.7 28.3001L30.2 30.1001C30.2 30.2001 30.1 30.2001 30.1 30.3001L20.6 42.0001C24.1 39.4001 28.8 37.8001 33.6 37.8001H93.3C100.5 37.8001 107.5 35.7001 108.1 30.2001C108.2 29.8001 108.2 29.5001 108.2 29.5001ZM165.5 42.1001C165.5 42.6001 165.4 43.1001 165.3 43.5001C165.2 43.9001 164.8 44.3001 164.3 44.6001C163.8 44.9001 162.9 45.2001 161.8 45.3001C160.7 45.5001 159.1 45.5001 157.1 45.5001H147.5C145.7 45.6001 144.3 45.7001 143.3 46.0001C142.3 46.3001 141.5 46.6001 141.1 47.0001C140.6 47.4001 140.3 47.8001 140.2 48.3001C140.1 48.8001 140 49.3001 140 49.9001C140 51.2001 140.5 52.4001 141.5 53.3001C142.5 54.2001 144.2 55.0001 146.5 55.7001L152.5 57.4001C157.4 58.8001 161.2 60.7001 163.8 63.1001C166.4 65.5001 167.6 68.7001 167.6 72.6001C167.6 74.8001 167.3 76.7001 166.6 78.6001C165.9 80.5001 164.9 82.1001 163.5 83.4001C162.1 84.8001 160.2 85.9001 157.9 86.7001C155.6 87.5001 152.7 87.9001 149.3 87.9001C145.2 87.9001 141.8 87.8001 139.1 87.7001C136.4 87.6001 134.3 87.3001 132.7 86.9001C131.1 86.5001 130 86.0001 129.4 85.4001C128.8 84.8001 128.4 84.1001 128.4 83.2001V75.8001C130.7 76.7001 133.5 77.3001 136.8 77.6001C140.1 77.9001 143.4 78.0001 146.7 77.9001C148.8 77.8001 150.5 77.7001 151.7 77.5001C152.9 77.3001 153.9 76.9001 154.6 76.5001C155.3 76.1001 155.7 75.5001 155.9 74.9001C156.1 74.3001 156.2 73.5001 156.2 72.6001C156.2 71.4001 155.6 70.3001 154.5 69.3001C153.4 68.3001 151.3 67.3001 148.4 66.5001L142.4 64.8001C138 63.5001 134.6 61.7001 132.2 59.3001C129.8 56.9001 128.6 53.8001 128.6 50.0001C128.6 48.3001 128.8 46.6001 129.2 44.9001C129.6 43.2001 130.5 41.7001 131.8 40.3001C133.1 38.9001 135 37.9001 137.5 37.0001C139.9 36.1001 143.2 35.7001 147.2 35.7001H157.3C158.9 35.7001 160.5 35.6001 162 35.4001C163.5 35.2001 164.6 34.8001 165.5 34.4001V42.1001ZM174.6 37.7001C177.1 37.1001 179.6 36.7001 182.2 36.3001C184.8 35.9001 187.2 35.7001 189.6 35.5001C191.9 35.3001 194.1 35.3001 196 35.3001C197.9 35.3001 199.5 35.4001 200.6 35.6001C206.6 36.4001 210.9 38.9001 213.6 43.1001C216.3 47.2001 217.6 53.2001 217.6 60.9001C217.6 64.5001 217.3 67.8001 216.6 70.9001C215.9 74.0001 214.9 76.6001 213.5 78.8001C212.1 81.0001 210.2 82.8001 208 84.0001C205.8 85.3001 203 85.9001 199.9 85.9001C197.5 85.9001 195.1 85.8001 192.9 85.7001C190.6 85.6001 188.4 85.4001 186.3 85.0001V100.8C186.3 102.7 185.4 103.6 183.5 103.6H174.8V37.7001H174.6ZM186.1 74.6001C188.1 75.0001 190.2 75.2001 192.2 75.4001C194.3 75.5001 196.3 75.5001 198.4 75.4001C201.3 75.3001 203.2 74.0001 204.3 71.5001C205.4 69.0001 205.9 65.5001 205.9 60.8001C205.9 55.9001 205.3 52.3001 204 50.1001C202.7 47.8001 200.7 46.4001 197.8 45.9001C197.1 45.8001 196.2 45.7001 195.2 45.7001C194.2 45.7001 193.1 45.7001 192 45.8001L188.7 46.1001C187.6 46.3001 186.7 46.5001 185.9 46.7001V74.6001H186.1ZM262.2 35.8001C266.4 35.8001 269.4 35.4001 271.2 34.5001V42.4001C271.2 43.7001 270.5 44.5001 269.2 44.9001C267.8 45.3001 265.4 45.5001 261.8 45.5001H247.1C244.8 45.5001 243 45.9001 241.6 46.6001C240.2 47.4001 239.2 48.5001 238.5 49.9001C237.8 51.3001 237.3 53.1001 237.1 55.1001C236.9 57.2001 236.8 59.5001 236.8 62.1001C236.8 64.4001 236.9 66.6001 237.1 68.6001C237.3 70.6001 237.7 72.3001 238.5 73.7001C239.2 75.1001 240.3 76.3001 241.6 77.1001C243 77.9001 244.8 78.3001 247.2 78.3001H249.1C251.4 78.3001 253.3 77.9001 254.7 77.2001C256.1 76.4001 257.2 75.4001 257.9 74.0001C258.6 72.6001 259.1 70.9001 259.3 68.9001C259.5 66.9001 259.6 64.7001 259.6 62.2001C259.6 60.0001 259.6 58.2001 259.5 56.7001C259.4 55.2001 259.3 53.9001 259.2 52.9001C259.1 51.9001 258.9 51.0001 258.6 50.3001C258.3 49.6001 258 49.0001 257.6 48.4001H266.1C267 48.4001 267.8 48.6001 268.4 48.9001C269.1 49.2001 269.6 50.1001 270.1 51.5001C270.4 52.5001 270.6 53.9001 270.8 55.6001C270.9 57.3001 271 59.5001 271 62.2001C271 65.6001 270.8 68.9001 270.3 72.0001C269.8 75.1001 268.8 77.8001 267.2 80.2001C265.6 82.6001 263.3 84.5001 260.3 85.9001C257.3 87.3001 253.3 88.0001 248.2 88.0001C243.3 88.0001 239.3 87.3001 236.3 85.9001C233.3 84.5001 231 82.6001 229.4 80.2001C227.8 77.8001 226.7 75.1001 226.2 72.0001C225.7 68.9001 225.4 65.6001 225.4 62.2001C225.4 58.7001 225.7 55.4001 226.3 52.2001C226.9 49.0001 228 46.2001 229.7 43.8001C231.4 41.4001 233.7 39.4001 236.7 38.0001C239.7 36.6001 243.6 35.9001 248.4 35.9001H262.2V35.8001ZM290.5 84.3001C290.5 86.2001 289.6 87.2001 287.8 87.2001H278.9V45.6001C278.9 43.2001 279.4 41.4001 280.5 40.1001C281.6 38.9001 283 38.0001 284.9 37.5001C287.3 36.9001 289.7 36.4001 292.1 36.1001C294.5 35.8001 297.4 35.7001 301 35.7001C302.6 35.7001 304.1 35.6001 305.5 35.4001C306.9 35.2001 308.1 34.9001 309.2 34.4001V42.9001C309.2 44.2001 308.6 45.0001 307.3 45.4001C306 45.8001 303.8 46.0001 300.6 46.0001C299.6 46.0001 298.5 46.0001 297.3 46.1001C296.1 46.2001 295.1 46.4001 294.1 46.7001C293.1 47.0001 292.3 47.5001 291.6 48.2001C290.9 48.9001 290.6 49.8001 290.6 51.0001V84.3001H290.5ZM331 23.8001V36.0001H339C343.2 36.0001 346.2 35.6001 348 34.7001V42.4001C348 43.7001 347.3 44.5001 346 44.9001C344.6 45.3001 342.2 45.5001 338.6 45.5001H331V72.8001C331 74.8001 331.5 76.2001 332.4 76.9001C333.3 77.6001 335.2 78.0001 338 78.0001C339.9 78.0001 341.6 77.9001 343.1 77.6001C344.6 77.3001 345.9 77.0001 346.9 76.6001V84.7001C346.9 85.3001 346.6 85.8001 345.9 86.2001C345.2 86.6001 344.3 86.9001 343.2 87.1001C342.1 87.3001 340.8 87.5001 339.4 87.6001C337.9 87.7001 336.4 87.8001 334.8 87.8001C329.9 87.8001 326.1 86.7001 323.5 84.4001C320.9 82.1001 319.6 78.7001 319.6 74.1001V45.5001H311V38.8001C311 37.0001 311.9 36.0001 313.8 36.0001H319.5V26.6001C319.5 24.7001 320.4 23.7001 322.2 23.7001H331V23.8001ZM387.9 42.1001C387.9 42.6001 387.8 43.1001 387.7 43.5001C387.6 43.9001 387.2 44.3001 386.7 44.6001C386.2 44.9001 385.3 45.2001 384.2 45.3001C383.1 45.5001 381.5 45.5001 379.4 45.5001H369.8C368 45.6001 366.6 45.7001 365.6 46.0001C364.6 46.3001 363.8 46.6001 363.4 47.0001C362.9 47.4001 362.6 47.8001 362.5 48.3001C362.4 48.8001 362.3 49.3001 362.3 49.9001C362.3 51.2001 362.8 52.4001 363.8 53.3001C364.8 54.2001 366.5 55.0001 368.8 55.7001L374.8 57.4001C379.7 58.8001 383.5 60.7001 386.1 63.1001C388.7 65.5001 389.9 68.7001 389.9 72.6001C389.9 74.8001 389.6 76.7001 388.9 78.6001C388.3 80.4001 387.2 82.1001 385.8 83.4001C384.4 84.7001 382.5 85.9001 380.2 86.7001C377.9 87.5001 375 87.9001 371.6 87.9001C367.5 87.9001 364.1 87.8001 361.4 87.7001C358.7 87.6001 356.6 87.3001 355 86.9001C353.4 86.5001 352.3 86.0001 351.7 85.4001C351.1 84.8001 350.7 84.1001 350.7 83.2001V75.8001C353 76.7001 355.8 77.3001 359.1 77.6001C362.4 77.9001 365.7 78.0001 369 77.9001C371.1 77.8001 372.8 77.7001 374 77.5001C375.2 77.3001 376.2 76.9001 376.9 76.5001C377.6 76.1001 378 75.5001 378.2 74.9001C378.4 74.3001 378.5 73.5001 378.5 72.6001C378.5 71.4001 377.9 70.3001 376.8 69.3001C375.7 68.3001 373.6 67.3001 370.7 66.5001L364.7 64.8001C360.3 63.5001 356.9 61.7001 354.5 59.3001C352.1 56.9001 350.9 53.8001 350.9 50.0001C350.9 48.3001 351.1 46.6001 351.5 44.9001C351.9 43.2001 352.8 41.7001 354.1 40.3001C355.4 38.9001 357.3 37.9001 359.8 37.0001C362.2 36.1001 365.5 35.7001 369.5 35.7001H379.6C381.2 35.7001 382.8 35.6001 384.3 35.4001C385.8 35.2001 386.9 34.8001 387.8 34.4001V42.1001H387.9Z" fill="#EC1B23"/>
</g>
<defs>
<clipPath id="clip0_39_5">
<rect width="390" height="103.5" fill="white"/>
</clipPath>
</defs>
</svg>
