<svg width="156" height="64" viewBox="0 0 156 64" fill="none" xmlns="http://www.w3.org/2000/svg">
<path d="M30.37 63.1201L16.91 47.6801L28.46 34.9201H20.09L10.93 44.8701V26.1201H0C2.07 27.8701 3.82 30.1801 3.82 33.3001V63.1401H10.93V51.2001L21.49 63.1401H30.36L30.37 63.1201Z" fill="white"/>
<path d="M122.54 34.9102V63.1202H115.43V42.0902C115.43 38.9702 113.67 36.6602 111.61 34.9102H122.55H122.54Z" fill="white"/>
<path d="M152.41 57.1702L155.81 63.1202H127.84L142.21 40.8502H128.79V34.9102H155.2L139.61 57.1702H152.41Z" fill="white"/>
<path d="M43.8205 54.9801V40.8501H48.8205L52.2305 34.9001H43.8305V26.1001L36.7205 30.1701V34.9001H31.4805V40.8501H36.7205V55.3601C36.7205 59.6401 40.1905 63.1101 44.4705 63.1101H50.1105V57.1701H46.0205C44.8105 57.1701 43.8305 56.1901 43.8305 54.9801" fill="white"/>
<path d="M100.77 34.9102L93.7099 49.7702L85.5099 34.1702L77.2999 49.7702L70.2399 34.9102H59.1699C61.6799 36.3202 64.5399 38.7002 66.2599 42.1902C67.9799 45.6802 76.9499 63.8002 76.9499 63.8002L85.4999 47.4702L94.0499 63.8002L108.4 34.9102H100.76H100.77Z" fill="white"/>
<path d="M118.35 26.12C117.37 18.54 112 9.92 104.36 3.65C112.6 6.55 119.74 5.15 122.96 0C123.94 7.58 129.31 16.2 136.95 22.47C128.71 19.57 121.58 20.97 118.35 26.12Z" fill="#EC1C24"/>
</svg>
